HIERARCHY
ROOT Hips
{
	OFFSET 0.000000 0.000000 0.000000
	CHANNELS 6 Xposition Yposition Zposition Zrotation Yrotation Xrotation 
	JOINT LHipJoint
	{
		OFFSET 0.000000 0.000000 0.000000
		CHANNELS 3 Zrotation Yrotation Xrotation
		JOINT LeftUpLeg
		{
			OFFSET 1.363060 -1.794630 0.839290
			CHANNELS 3 Zrotation Yrotation Xrotation
			JOINT LeftLeg
			{
				OFFSET 2.448110 -6.726130 0.000000
				CHANNELS 3 Zrotation Yrotation Xrotation
				JOINT LeftFoot
				{
					OFFSET 2.562200 -7.039590 0.000000
					CHANNELS 3 Zrotation Yrotation Xrotation
					JOINT LeftToeBase
					{
						OFFSET 0.157640 -0.433110 2.322550
						CHANNELS 3 Zrotation Yrotation Xrotation
						End Site
						{
							OFFSET 0.000000 0.000000 0.000000
						}
					}
				}
			}
		}
	}
	JOINT RHipJoint
	{
		OFFSET 0.000000 0.000000 0.000000
		CHANNELS 3 Zrotation Yrotation Xrotation
		JOINT RightUpLeg
		{
			OFFSET -1.305520 -1.794630 0.839290
			CHANNELS 3 Zrotation Yrotation Xrotation
			JOINT RightLeg
			{
				OFFSET -2.542530 -6.985550 0.000000
				CHANNELS 3 Zrotation Yrotation Xrotation
				JOINT RightFoot
				{
					OFFSET -2.568260 -7.056230 0.000000
					CHANNELS 3 Zrotation Yrotation Xrotation
					JOINT RightToeBase
					{
						OFFSET -0.164730 -0.452590 2.363150
						CHANNELS 3 Zrotation Yrotation Xrotation
						End Site
						{
							OFFSET 0.000000 0.000000 0.000000
						}
					}
				}
			}
		}
	}
	JOINT LowerBack
	{
		OFFSET 0.000000 0.000000 0.000000
		CHANNELS 3 Zrotation Yrotation Xrotation
		JOINT Spine
		{
			OFFSET 0.028270 2.035590 -0.193380
			CHANNELS 3 Zrotation Yrotation Xrotation
			JOINT Spine1
			{
				OFFSET 0.056720 2.048850 -0.042750
				CHANNELS 3 Zrotation Yrotation Xrotation
				JOINT Neck
				{
					OFFSET 0.000000 0.000000 0.000000
					CHANNELS 3 Zrotation Yrotation Xrotation
					JOINT Neck1
					{
						OFFSET -0.054170 1.746240 0.172020
						CHANNELS 3 Zrotation Yrotation Xrotation
						JOINT Head
						{
							OFFSET 0.104070 1.761360 -0.123970
							CHANNELS 3 Zrotation Yrotation Xrotation
							End Site
							{
								OFFSET 0.000000 0.000000 0.000000
							}
						}
					}
				}
				JOINT LeftShoulder
				{
					OFFSET 0.000000 0.000000 0.000000
					CHANNELS 3 Zrotation Yrotation Xrotation
					JOINT LeftArm
					{
						OFFSET 3.362410 1.200890 -0.311210
						CHANNELS 3 Zrotation Yrotation Xrotation
						JOINT LeftForeArm
						{
							OFFSET 4.983000 -0.000000 -0.000000
							CHANNELS 3 Zrotation Yrotation Xrotation
							JOINT LeftHand
							{
								OFFSET 3.483560 -0.000000 -0.000000
								CHANNELS 3 Zrotation Yrotation Xrotation
								JOINT LeftFingerBase
								{
									OFFSET 0.000000 0.000000 0.000000
									CHANNELS 3 Zrotation Yrotation Xrotation
									JOINT LeftHandIndex1
									{
										OFFSET 0.715260 -0.000000 -0.000000
										CHANNELS 3 Zrotation Yrotation Xrotation
										End Site
										{
											OFFSET 0.000000 0.000000 0.000000
										}
									}
								}
								JOINT LThumb
								{
									OFFSET 0.000000 0.000000 0.000000
									CHANNELS 3 Zrotation Yrotation Xrotation
									End Site
									{
										OFFSET 0.000000 0.000000 0.000000
									}
								}
							}
						}
					}
				}
				JOINT RightShoulder
				{
					OFFSET 0.000000 0.000000 0.000000
					CHANNELS 3 Zrotation Yrotation Xrotation
					JOINT RightArm
					{
						OFFSET -3.136600 1.374050 -0.404650
						CHANNELS 3 Zrotation Yrotation Xrotation
						JOINT RightForeArm
						{
							OFFSET -5.241900 -0.000000 -0.000000
							CHANNELS 3 Zrotation Yrotation Xrotation
							JOINT RightHand
							{
								OFFSET -3.444170 -0.000000 -0.000000
								CHANNELS 3 Zrotation Yrotation Xrotation
								JOINT RightFingerBase
								{
									OFFSET 0.000000 0.000000 0.000000
									CHANNELS 3 Zrotation Yrotation Xrotation
									JOINT RightHandIndex1
									{
										OFFSET -0.622530 -0.000000 -0.000000
										CHANNELS 3 Zrotation Yrotation Xrotation
										End Site
										{
											OFFSET 0.000000 0.000000 0.000000
										}
									}
								}
								JOINT RThumb
								{
									OFFSET 0.000000 0.000000 0.000000
									CHANNELS 3 Zrotation Yrotation Xrotation
									End Site
									{
										OFFSET 0.000000 0.000000 0.000000
									}
								}
							}
						}
					}
				}
			}
		}
	}
}
MOTION
Frames: 10
Frame Time: 0.008333
-0.197658 17.366096 -15.841569 -1.561938 -6.726153 20.850091 -1.737548 -4.124619 -5.260721 -14.077564 1.420736 -46.906282 -1.923830 4.177345 9.082933 0.850188 -1.875894 1.473106 0.058400 -1.558700 -4.287600 0.908752 1.104187 -0.511574 19.266816 -4.536574 -7.289589 -0.417122 -7.264062 20.880465 -2.501381 20.245885 -9.777759 -0.547200 4.739100 -13.166000 2.461612 3.311618 -8.328295 0.515957 3.380011 -9.528427 -1.073300 2.057036 0.404207 -1.329426 -0.781290 -8.598118 1.579949 -0.952736 10.378427 -0.885500 -0.321700 3.299600 13.125342 8.273471 1.136980 -104.069250 24.085842 -15.618074 3.894609 -13.069460 -0.208904 -0.757390 -0.932833 23.072699 15.317587 -13.542095 -3.422300 -7.125000 0.000000 0.000000 -8.040000 17.278100 5.342400 -13.024695 -7.362820 -0.669902 95.685576 11.694930 39.059017 -32.364180 49.148857 -13.327580 0.129949 -1.626020 -15.683781 -20.192994 -32.233522 10.433300 7.125000 0.000000 0.000000 13.770000 -61.617700 -5.628400
-0.186716 17.345466 -15.710436 -1.744985 -6.603516 20.819591 -1.747318 -4.119199 -5.255766 -13.757951 1.100190 -46.627309 -1.919357 4.181989 9.086666 0.843943 -1.835972 1.410343 0.066318 -1.658440 -4.562643 0.895050 1.079139 -0.494411 19.365463 -4.607530 -6.916238 -0.451303 -7.316289 21.063863 -2.461725 20.350415 -9.593316 -0.517018 4.606892 -12.791058 2.651591 3.322740 -8.228660 0.525470 3.366562 -9.556303 -1.147093 2.047969 0.303854 -1.339691 -0.828731 -8.601330 1.565752 -1.013265 10.390563 -0.886882 -0.352945 3.309377 13.114793 8.260835 1.133082 -104.041391 24.349285 -15.993557 3.850665 -12.950933 -0.190637 -0.759603 -0.945334 23.496103 15.588522 -13.509494 -3.468105 -7.125000 0.000000 0.000000 -7.859809 17.309451 5.215081 -13.009965 -7.348470 -0.666639 95.620680 11.459952 38.978150 -32.791229 49.441326 -13.600464 0.148959 -1.610207 -15.622961 -20.021055 -31.833835 10.233660 7.125000 0.000000 0.000000 13.662130 -61.194508 -5.447093
-0.176494 17.324566 -15.579263 -1.896332 -6.497608 20.788195 -1.758274 -4.111576 -5.249482 -13.449491 0.756280 -46.343084 -1.914108 4.197138 9.116027 0.831216 -1.763391 1.318372 0.071405 -1.720931 -4.734982 0.881758 1.055103 -0.478412 19.429453 -4.643194 -6.540374 -0.486581 -7.373340 21.262422 -2.422339 20.423842 -9.403857 -0.485749 4.468409 -12.398561 2.795561 3.332023 -8.142443 0.530178 3.357583 -9.580890 -1.207123 2.041498 0.214890 -1.352772 -0.872188 -8.603034 1.562856 -1.069956 10.398779 -0.883311 -0.381931 3.316331 13.103868 8.248284 1.129204 -104.005575 24.608021 -16.354035 3.808512 -12.838797 -0.173866 -0.762353 -0.955933 23.905194 15.824206 -13.477217 -3.506774 -7.125000 0.000000 0.000000 -7.703046 17.341073 5.103566 -12.996865 -7.334860 -0.662651 95.560457 11.223201 38.893308 -33.219995 49.734295 -13.874764 0.167560 -1.594889 -15.565886 -19.860125 -31.456304 10.046416 7.125000 0.000000 0.000000 13.558433 -60.795367 -5.275489
-0.171650 17.301657 -15.447789 -1.810980 -6.516611 20.750108 -1.778084 -4.087492 -5.233270 -13.224308 0.237929 -46.019647 -1.903070 4.290716 9.336737 0.770099 -1.446960 1.008311 0.055357 -1.505297 -4.140474 0.871526 1.038614 -0.471104 19.234673 -4.415345 -6.145754 -0.530054 -7.466410 21.574191 -2.384973 20.265042 -9.176943 -0.446374 4.283063 -11.874992 2.595998 3.327579 -8.156416 0.499014 3.381978 -9.580928 -1.164395 2.054407 0.210968 -1.386887 -0.885898 -8.593480 1.644346 -1.097999 10.377726 -0.842767 -0.394046 3.302196 13.090134 8.236358 1.125471 -103.910355 24.831604 -16.602480 3.779721 -12.774384 -0.168260 -0.769114 -0.952338 24.207410 15.796682 -13.447359 -3.492161 -7.125000 0.000000 0.000000 -7.721220 17.374709 5.110049 -12.995936 -7.326782 -0.653246 95.535126 10.973204 38.778784 -33.661584 50.031000 -14.159638 0.183118 -1.583277 -15.536777 -19.781403 -31.244196 9.951724 7.125000 0.000000 0.000000 13.485900 -60.575800 -5.176333
-0.168677 17.279205 -15.315991 -1.646780 -6.622804 20.716866 -1.796886 -4.057769 -5.214840 -13.042478 -0.300547 -45.719473 -1.887892 4.417692 9.641548 0.694569 -1.061526 0.614342 0.038431 -1.234495 -3.394521 0.861031 1.024789 -0.466492 18.944878 -4.085412 -5.752420 -0.572731 -7.562661 21.898217 -2.347727 20.033791 -8.928187 -0.465041 4.340241 -12.041560 2.266920 3.329324 -8.203791 0.455883 3.434025 -9.575428 -1.070811 2.083438 0.230203 -1.425914 -0.897934 -8.597057 1.730644 -1.123813 10.358582 -0.801570 -0.404844 3.291162 13.076705 8.226412 1.122315 -103.823547 25.008941 -17.076722 3.735130 -12.676183 -0.159788 -0.782852 -0.944047 24.749809 15.723341 -13.457596 -3.478879 -7.125000 0.000000 0.000000 -7.768828 17.370538 5.143029 -12.998132 -7.319202 -0.643695 95.495402 10.737107 38.680535 -34.080135 50.310440 -14.430892 0.195698 -1.571313 -15.510240 -19.765074 -31.051616 9.895191 7.125000 0.000000 0.000000 13.362090 -60.391004 -5.068843
-0.171754 17.258232 -15.183149 -1.227638 -7.010917 20.699287 -1.812432 -4.009810 -5.189235 -13.000824 -0.904094 -45.494516 -1.859330 4.652649 10.218284 0.572440 -0.452981 -0.050929 0.018663 -0.785319 -2.158902 0.849680 1.019578 -0.470599 18.347872 -3.425404 -5.363243 -0.612833 -7.669197 22.261874 -2.310870 19.568282 -8.608814 -0.671376 5.181576 -14.439575 1.519075 3.351081 -8.359165 0.374060 3.575476 -9.552020 -0.812791 2.164593 0.324314 -1.480826 -0.904559 -8.643095 1.832490 -1.142424 10.345606 -0.758262 -0.411380 3.290152 13.064258 8.222866 1.121025 -103.763939 25.036745 -18.281039 3.639454 -12.468732 -0.142052 -0.819147 -0.920575 26.068795 15.501857 -13.597471 -3.469898 -7.125000 0.000000 0.000000 -7.911610 17.244123 5.261687 -13.010432 -7.313229 -0.633675 95.409137 10.545953 38.634910 -34.424195 50.534054 -14.658110 0.198652 -1.558213 -15.492021 -19.950481 -30.922179 9.962038 7.125000 0.000000 0.000000 13.072487 -60.318630 -4.934403
-0.170369 17.238088 -15.047884 -0.922863 -7.244610 20.678406 -1.825328 -3.969030 -5.164250 -12.908665 -1.512193 -45.249052 -1.822520 4.899355 10.837882 0.483908 -0.019494 -0.594515 0.019965 -0.057275 -0.156004 0.834517 1.012108 -0.474064 17.895034 -2.967144 -5.035085 -0.666896 -7.792086 22.672331 -2.265428 19.264148 -8.246451 -0.817723 5.769329 -16.116743 0.970744 3.361204 -8.490578 0.313001 3.670748 -9.535202 -0.622660 2.219224 0.403435 -1.530403 -0.930608 -8.698265 1.903378 -1.181763 10.357216 -0.726591 -0.429025 3.303433 13.055120 8.219088 1.119185 -103.724180 25.045705 -19.589851 3.545754 -12.255322 -0.124019 -0.855471 -0.896198 27.502682 15.304445 -13.716542 -3.459656 -7.125000 0.000000 0.000000 -8.038953 17.138437 5.366580 -13.018198 -7.307856 -0.624678 95.296070 10.333360 38.597356 -34.747097 50.741706 -14.871373 0.201027 -1.545752 -15.492085 -20.159121 -30.814208 10.046867 7.125000 0.000000 0.000000 12.772397 -60.272258 -4.804370
-0.160852 17.219452 -14.908202 -0.826489 -7.196918 20.651509 -1.833395 -3.941330 -5.140393 -12.724476 -2.128590 -44.966219 -1.770678 5.167470 11.535584 0.456596 0.094999 -0.916365 0.059659 1.178929 3.245046 0.812407 1.000518 -0.476359 17.704902 -2.876514 -4.818115 -0.746399 -7.944774 23.168070 -2.204344 19.254077 -7.805751 -0.854761 5.895001 -16.480367 0.785969 3.350128 -8.578325 0.289776 3.681871 -9.530392 -0.556238 2.225519 0.455241 -1.570257 -0.992053 -8.770078 1.917853 -1.258876 10.413626 -0.716123 -0.466912 3.342755 13.052012 8.214887 1.116345 -103.720589 25.020324 -21.089079 3.455658 -12.031054 -0.105446 -0.891846 -0.870176 29.145944 15.150899 -13.797702 -3.447116 -7.125000 0.000000 0.000000 -8.138162 17.070527 5.446394 -13.017704 -7.303579 -0.617542 95.134163 10.081698 38.574512 -35.031443 50.920275 -15.059210 0.202350 -1.534453 -15.525466 -20.410097 -30.745352 10.164462 7.125000 0.000000 0.000000 12.453197 -60.273267 -4.682365
-0.151335 17.207225 -14.767309 -0.720003 -7.152288 20.611535 -1.834605 -3.906663 -5.111673 -12.576614 -2.718998 -44.702854 -1.704433 5.472306 12.336431 0.368674 0.578150 -0.137341 0.096240 0.759811 2.088982 0.787974 0.984124 -0.476124 17.502841 -2.783397 -4.540122 -0.818988 -8.077402 23.611233 -2.135061 19.254978 -7.289182 -0.887957 6.005936 -16.801815 0.588379 3.342683 -8.648923 0.260343 3.701782 -9.533591 -0.503384 2.235450 0.475397 -1.590562 -1.061131 -8.808974 1.935848 -1.350122 10.466707 -0.708592 -0.510975 3.373868 13.045280 8.207934 1.110355 -103.674852 25.044891 -22.404300 3.385674 -11.850687 -0.093593 -0.918780 -0.845606 30.606578 15.007167 -13.773012 -3.408542 -7.125000 0.000000 0.000000 -8.234433 17.105997 5.505395 -13.017107 -7.296298 -0.607954 95.012063 9.770165 38.486766 -35.326458 51.102947 -15.253429 0.207139 -1.524531 -15.545654 -20.547338 -30.677183 10.222282 7.125000 0.000000 0.000000 12.255252 -60.246260 -4.598669
-0.141818 17.202153 -14.625064 -0.602225 -7.111077 20.556960 -1.828161 -3.864215 -5.077524 -12.469318 -3.280384 -44.461229 -1.622104 5.818149 13.252458 0.213073 1.472971 1.870994 0.129345 -1.507750 -4.155858 0.760946 0.962365 -0.473064 17.287458 -2.687503 -4.193987 -0.883855 -8.187629 23.995688 -2.056620 19.268132 -6.687892 -0.916864 6.100415 -17.076167 0.376476 3.339293 -8.700372 0.223978 3.731505 -9.545733 -0.465683 2.249442 0.460212 -1.589039 -1.138731 -8.811113 1.957771 -1.457150 10.516070 -0.704341 -0.561935 3.395814 13.034501 8.197908 1.100849 -103.582054 25.125234 -23.514046 3.338150 -11.719342 -0.089243 -0.935171 -0.822660 31.863278 14.874396 -13.630124 -3.340897 -7.125000 0.000000 0.000000 -8.327425 17.256909 5.541157 -13.016395 -7.285662 -0.595629 94.934416 9.391774 38.326547 -35.633388 51.290200 -15.454775 0.215799 -1.516144 -15.551111 -20.557574 -30.609781 10.213355 7.125000 0.000000 0.000000 12.192708 -60.187968 -4.557753
